<svg width="14" height="13" viewBox="0 0 14 13" fill="none" xmlns="http://www.w3.org/2000/svg">
<path fill-rule="evenodd" clip-rule="evenodd" d="M7.00052 9.61916L11.175 2.61997H2.82604L7.00052 9.61916ZM6.10503 12.1196C6.19579 12.2716 6.32632 12.3979 6.48351 12.4856C6.6407 12.5734 6.81901 12.6196 7.00052 12.6196C7.18202 12.6196 7.36033 12.5734 7.51752 12.4856C7.67471 12.3979 7.80525 12.2716 7.89601 12.1196L13.8615 2.11988C13.9522 1.96784 14 1.79537 14 1.61981C14 1.44424 13.9522 1.27177 13.8615 1.11973C13.7707 0.967681 13.6402 0.841421 13.483 0.753636C13.3258 0.665851 13.1475 0.619633 12.966 0.619629H1.03403C0.852515 0.619633 0.674202 0.665851 0.51701 0.753636C0.359818 0.841421 0.229285 0.967681 0.13853 1.11973C0.0477764 1.27177 -1.15279e-06 1.44424 0 1.61981C1.15284e-06 1.79537 0.0477811 1.96784 0.138537 2.11988L6.10503 12.1196Z" fill="#197FAF"/>
</svg>
